# xmcd
#
# Track frame offsets:
#	150
#	11022
#	21767
#	31211
#	40543
#	49440
#	60559
#	72385
#	86298
#	98688
#	109768
#
# Disc length: 1619 seconds
#
# Revision: 0
# Processed by: cddbd v1.5.2PL0 Copyright (c) Steve Scherf et al.
# Submitted via: audiograbber 1.83.01
#
DISCID=8206510b
DTITLE=George Jones - Honky Tonkin'
DYEAR=1997
DGENRE=Country
TTITLE0=Who Shot Sam
TTITLE1=Treasure Of Love
TTITLE2=Big Harlan Taylor
TTITLE3=Honky Tonkin'
TTITLE4=If I Don't Love You (Grits Ain't Groceries)
TTITLE5=Wandering Soul
TTITLE6=Revenooer Man
TTITLE7=Family Bible
TTITLE8=Oh' Lonesome Me
TTITLE9=Will The Circle Be Unbroken
TTITLE10=You're Still On My Mind
EXTD=
EXTT0=
EXTT1=
EXTT2=
EXTT3=
EXTT4=
EXTT5=
EXTT6=
EXTT7=
EXTT8=
EXTT9=
EXTT10=
PLAYORDER=
